<svg xmlns="http://www.w3.org/2000/svg" viewBox="0 0 3395 2540" preserveAspectRatio="xMidYMid meet" role="img" aria-label="Oportunidades Inmobiliarias">
  <title>Oportunidades Inmobiliarias</title>
  <desc>Logotipo de Oportunidades Inmobiliarias: inicial J con tres siluetas de casas integradas y ventana cuadrada en la casa central. Texto en dos líneas debajo.</desc>

  <!-- Isotipo: J + casas + swoosh + ventana cuadrada -->
  <g fill="#FFFFFF" transform="translate(0,1590) scale(0.1,-0.1)">
    <path d="M23265 15351 c-33 -28 -87 -73 -120 -101 -33 -28 -94 -74 -135 -102
-41 -28 -100 -74 -130 -103 -31 -29 -67 -56 -80 -60 -14 -4 -43 -24 -65 -45
-22 -21 -67 -56 -101 -77 -34 -21 -100 -72 -148 -113 -48 -41 -114 -92 -148
-112 -33 -21 -89 -63 -123 -95 -34 -32 -88 -76 -120 -98 -32 -22 -86 -65 -119
-95 -58 -53 -107 -90 -181 -135 -18 -11 -53 -39 -78 -62 -26 -24 -52 -43 -58
-43 -7 0 -31 -16 -55 -35 -23 -19 -48 -35 -54 -35 -6 0 -35 -22 -63 -49 -29
-27 -61 -51 -73 -55 -12 -3 -36 -25 -54 -47 -19 -24 -55 -52 -84 -65 -87 -41
-214 -137 -286 -216 -49 -54 -78 -77 -101 -82 -36 -7 -83 -43 -172 -133 -34
-34 -82 -73 -107 -86 -70 -36 -101 -57 -152 -104 -26 -24 -52 -43 -59 -43 -7
0 -30 -15 -53 -33 -23 -18 -57 -43 -76 -54 -19 -12 -51 -38 -70 -58 -19 -20
-51 -45 -70 -55 -39 -20 -183 -133 -214 -169 -24 -27 -41 -27 -77 2 -16 12
-43 33 -61 47 -30 24 -116 72 -184 103 -16 8 -50 37 -75 64 -42 48 -197 143
-232 143 -16 0 -57 41 -57 57 0 24 -46 66 -95 88 -30 13 -86 53 -128 92 -41
38 -90 76 -108 83 -48 19 -139 90 -149 115 -5 12 -41 41 -82 65 -40 23 -91 57
-113 74 -22 18 -53 37 -69 44 -47 21 -157 95 -226 153 -36 30 -90 70 -120 88
-54 33 -82 54 -158 117 -20 17 -64 46 -97 64 -33 19 -88 60 -122 92 -34 32
-66 58 -72 58 -5 0 -31 18 -56 40 -25 22 -50 40 -56 40 -5 0 -36 25 -69 55
-33 30 -66 55 -72 55 -29 0 -117 56 -175 112 -41 38 -87 70 -135 92 -55 25
-84 46 -116 85 -24 28 -50 51 -58 51 -23 0 -95 48 -155 105 -30 29 -78 64
-106 78 -28 15 -66 44 -85 66 -50 58 -210 161 -252 161 -40 0 -92 -36 -198
-137 -43 -40 -86 -73 -97 -73 -20 0 -103 -62 -186 -140 -27 -26 -70 -59 -95
-74 -25 -15 -63 -40 -85 -57 -22 -16 -62 -45 -90 -64 -27 -18 -77 -61 -110
-94 -33 -34 -63 -61 -67 -61 -22 0 -151 -87 -174 -117 -14 -19 -44 -46 -67
-61 -23 -14 -60 -41 -81 -59 -22 -18 -47 -33 -56 -33 -9 0 -34 -19 -55 -41
-74 -77 -175 -159 -196 -159 -11 0 -56 -32 -100 -72 -44 -40 -99 -86 -122
-101 -23 -15 -60 -46 -82 -68 -23 -21 -51 -39 -63 -39 -12 0 -43 -19 -70 -42
-77 -67 -171 -140 -232 -180 -30 -20 -82 -60 -115 -87 -142 -121 -171 -144
-195 -154 -14 -6 -54 -39 -90 -73 -39 -37 -94 -77 -138 -99 -42 -21 -83 -50
-97 -70 -14 -18 -40 -39 -58 -46 -29 -12 -94 -61 -201 -151 -21 -18 -53 -38
-70 -44 -20 -7 -44 -29 -68 -65 -71 -104 -223 -78 -391 68 -30 26 -88 66 -128
87 -68 36 -107 63 -221 154 -22 18 -72 51 -111 74 -39 22 -96 65 -128 94 -35
32 -68 54 -81 54 -14 0 -50 23 -87 55 -34 31 -88 73 -119 95 -32 21 -81 58
-109 82 -29 24 -102 74 -163 112 -61 38 -120 82 -131 98 -12 16 -55 46 -99 68
-43 21 -99 58 -126 80 -26 23 -66 53 -88 67 -23 14 -86 58 -141 98 -55 39
-120 83 -145 97 -25 15 -77 58 -117 96 -44 43 -86 75 -110 82 -21 7 -63 36
-93 64 -30 29 -93 74 -140 101 -95 54 -124 74 -328 222 -79 58 -179 123 -222
145 -60 30 -93 55 -134 102 -106 122 -218 162 -289 105 -14 -10 -31 -19 -39
-19 -7 0 -38 -25 -68 -55 -30 -31 -77 -69 -105 -84 -27 -16 -80 -58 -117 -95
-46 -45 -74 -66 -91 -66 -16 0 -52 -23 -99 -61 -40 -34 -98 -79 -128 -99 -30
-21 -76 -62 -102 -93 -36 -42 -68 -65 -140 -102 -51 -26 -110 -63 -131 -81
-20 -19 -41 -34 -46 -34 -6 0 -43 -31 -83 -68 -72 -67 -159 -132 -175 -132 -5
0 -31 -23 -58 -50 -28 -28 -74 -65 -104 -83 -132 -79 -109 -61 -276 -209 -35
-32 -73 -58 -83 -58 -10 0 -27 -9 -37 -20 -10 -12 -35 -30 -54 -42 -20 -12
-56 -39 -80 -60 -24 -21 -49 -38 -55 -38 -7 0 -28 -16 -47 -36 -36 -38 -160
-136 -214 -169 -18 -11 -56 -42 -83 -68 -28 -26 -56 -47 -61 -47 -19 0 -122
-78 -160 -122 -23 -26 -71 -60 -121 -87 -46 -24 -106 -62 -134 -85 -28 -23
-66 -53 -85 -66 -19 -13 -61 -48 -94 -77 -32 -29 -83 -64 -113 -78 -29 -14
-65 -41 -79 -59 -26 -34 -177 -150 -212 -163 -10 -3 -37 -24 -60 -45 -24 -21
-47 -38 -52 -38 -15 0 -88 -52 -156 -110 -33 -28 -89 -71 -125 -96 -36 -24
-94 -68 -128 -97 -35 -30 -80 -62 -100 -73 -34 -17 -87 -60 -211 -170 -69 -61
-122 -99 -166 -122 -22 -11 -49 -30 -60 -42 -11 -12 -40 -34 -65 -48 -59 -33
-133 -91 -228 -176 -48 -43 -104 -81 -149 -102 -56 -27 -84 -48 -130 -100 -92
-104 -138 -134 -210 -134 -113 0 -122 35 -122 500 0 190 -4 487 -9 660 -14
450 -8 862 13 893 8 13 21 67 28 119 9 61 21 105 33 124 11 16 30 54 41 84 61
164 188 260 548 415 22 9 58 25 80 35 37 16 131 33 260 47 47 5 123 45 141 74
3 6 8 68 11 137 7 189 15 186 -357 170 -25 -1 -72 -1 -105 0 -33 1 -139 -2
-235 -8 -96 -6 -213 -9 -260 -8 -124 3 -538 -6 -830 -18 -63 -2 -403 -7 -755
-10 -352 -2 -710 -9 -795 -14 -85 -6 -315 -11 -510 -12 -201 -1 -364 -6 -375
-12 -11 -5 -27 -12 -35 -16 -20 -9 -24 -53 -11 -106 8 -30 8 -57 1 -88 -21
-93 29 -157 132 -171 28 -4 66 -14 85 -22 19 -7 55 -14 81 -14 27 0 71 -10
102 -23 30 -13 119 -44 197 -69 285 -91 411 -219 542 -549 30 -76 42 -158 56
-368 3 -52 10 -115 16 -140 16 -73 58 -1595 51 -1845 -2 -55 2 -129 7 -165 6
-36 12 -277 15 -535 3 -259 7 -477 10 -485 7 -20 22 -440 32 -905 5 -266 6
-269 17 -425 12 -165 17 -308 16 -461 0 -65 4 -141 10 -170 6 -30 13 -182 17
-339 3 -157 7 -321 9 -365 1 -44 5 -195 9 -335 4 -140 11 -383 16 -540 6 -157
10 -393 10 -526 0 -133 4 -254 9 -270 9 -28 23 -549 26 -959 0 -110 5 -207 10
-215 38 -59 33 -1425 -6 -1501 -16 -32 -29 -67 -29 -78 0 -11 -11 -55 -25 -97
-17 -52 -25 -99 -25 -145 0 -55 -5 -77 -23 -107 -32 -50 -77 -147 -77 -165 0
-27 -186 -192 -296 -261 -60 -38 -126 -81 -146 -95 -21 -14 -52 -34 -70 -43
-17 -10 -57 -38 -87 -63 -31 -26 -86 -63 -122 -83 -197 -109 -297 -172 -345
-215 -54 -49 -362 -187 -416 -187 -31 0 -115 -33 -134 -52 -14 -14 -14 -20 5
-61 12 -25 21 -64 21 -86 0 -30 7 -49 29 -73 16 -18 43 -60 61 -93 18 -33 62
-114 97 -180 90 -167 137 -192 261 -139 20 9 67 20 103 25 44 5 80 17 105 34
21 14 49 28 63 31 14 3 41 12 59 20 18 8 44 14 59 14 26 0 79 16 303 90 69 23
141 45 160 50 19 4 64 21 100 38 36 16 115 49 175 72 130 51 396 181 478 234
33 21 75 45 95 53 21 8 51 25 67 38 17 12 66 41 110 63 44 22 93 54 110 72 16
17 49 40 73 50 24 11 76 51 115 89 40 38 86 75 102 84 82 41 324 275 360 348
15 30 46 74 70 99 24 25 66 86 93 135 193 354 204 366 396 425 38 12 99 36
136 55 37 19 105 44 151 55 115 30 267 79 309 100 20 10 53 22 75 26 21 4 81
25 133 46 52 22 125 44 161 49 36 5 109 22 161 38 52 16 109 32 125 36 17 3
82 28 145 55 83 35 133 50 181 54 36 3 85 12 110 21 24 9 71 22 104 29 33 7
94 27 135 44 41 18 78 32 82 32 4 0 36 13 70 29 49 23 81 31 143 34 61 3 97
11 150 34 39 16 93 33 121 37 28 3 84 18 123 31 39 14 81 25 93 25 22 0 66 11
181 46 28 8 90 24 137 34 47 10 101 24 120 29 19 6 51 11 70 11 19 0 53 12 75
25 26 16 55 25 82 25 23 0 57 6 75 14 59 26 211 68 274 76 35 4 73 15 86 24
12 9 42 16 67 16 24 0 96 15 160 34 64 19 141 37 171 41 30 4 66 14 79 22 18
12 47 16 105 14 55 -1 84 3 95 13 9 7 48 21 86 30 39 9 79 19 90 22 11 3 67 9
125 14 119 8 291 39 395 71 39 11 95 24 125 29 30 4 69 13 85 18 17 6 72 13
124 16 70 5 100 11 114 24 14 12 37 17 81 18 35 0 68 4 75 8 7 5 33 9 59 10
26 2 69 13 96 24 27 12 69 22 95 22 64 0 308 44 353 64 21 9 59 16 86 16 53 0
206 24 292 46 30 8 78 14 106 14 29 0 65 5 81 11 15 6 71 12 123 14 52 2 118
11 145 19 28 9 74 16 104 16 64 0 160 17 216 37 22 8 75 17 118 19 74 3 176
19 292 45 50 12 155 22 375 39 186 14 297 28 319 40 13 6 66 10 134 8 67 -1
125 3 142 9 17 7 82 14 145 17 147 8 240 19 265 33 11 5 85 13 165 17 80 4
186 11 235 17 50 6 126 12 170 13 44 2 99 8 122 15 23 6 142 14 264 17 122 3
230 9 241 15 17 9 147 18 388 25 160 4 358 13 535 24 83 5 325 12 539 15 214
3 394 9 399 12 31 19 1900 22 2006 3 53 -10 78 -10 91 -3 20 13 715 -1 824
-16 38 -5 82 -7 97 -4 46 9 510 -17 564 -32 31 -9 126 -16 255 -19 314 -8 442
-16 480 -31 32 -13 323 -33 575 -39 128 -4 286 -16 338 -28 27 -6 90 -12 140
-13 51 -1 146 -12 212 -24 66 -11 143 -21 170 -21 47 0 112 -9 235 -31 60 -10
167 -22 360 -40 69 -6 159 -15 200 -20 41 -5 138 -12 215 -15 111 -5 144 -9
159 -22 12 -11 45 -19 100 -24 101 -8 194 -24 259 -43 28 -8 87 -15 132 -15
85 0 251 -21 295 -38 14 -5 50 -12 80 -16 30 -4 60 -12 68 -18 7 -6 92 -17
190 -25 130 -10 190 -19 224 -33 26 -11 64 -20 86 -20 22 0 56 -7 75 -15 22
-9 68 -15 115 -15 48 0 94 -6 115 -15 23 -9 69 -15 124 -15 52 0 127 -9 183
-21 52 -12 121 -24 152 -29 32 -4 79 -15 105 -23 53 -17 175 -37 227 -37 18 0
49 -6 67 -14 19 -7 68 -19 109 -26 41 -7 97 -21 123 -32 27 -10 81 -22 120
-25 43 -3 84 -13 102 -24 17 -10 57 -22 90 -28 33 -5 73 -14 90 -21 16 -6 46
-8 68 -4 39 6 73 -4 108 -33 10 -8 49 -15 95 -17 106 -5 211 -21 256 -40 21
-9 47 -16 58 -16 11 0 38 -9 58 -19 21 -11 67 -25 102 -31 35 -6 73 -18 84
-26 11 -8 32 -14 47 -14 15 0 46 -7 69 -15 23 -8 67 -15 97 -15 29 0 79 -9
110 -20 32 -11 72 -20 89 -20 17 0 37 -7 44 -15 9 -11 32 -15 80 -15 51 0 92
-9 171 -36 172 -59 220 -74 240 -74 11 0 52 -9 92 -19 39 -11 95 -25 122 -32
137 -33 207 -58 220 -79 3 -6 24 -10 45 -10 22 0 74 -11 117 -25 43 -14 87
-25 99 -25 11 0 47 -8 80 -19 32 -10 95 -29 139 -41 44 -13 94 -29 112 -36 17
-8 44 -14 60 -14 16 0 47 -9 68 -21 42 -22 153 -53 245 -69 84 -15 186 -45
216 -65 37 -24 144 -64 249 -91 142 -37 280 -83 410 -136 66 -26 126 -48 132
-48 26 0 261 -73 338 -105 138 -56 188 -74 255 -89 124 -27 155 -37 245 -78
50 -22 131 -49 180 -59 101 -21 189 -57 445 -183 96 -48 194 -91 217 -96 24
-6 84 -29 135 -51 51 -23 127 -53 168 -66 41 -14 102 -38 136 -54 34 -16 71
-29 83 -29 12 0 44 -11 71 -25 26 -13 70 -29 97 -35 26 -6 70 -22 96 -36 46
-25 49 -25 68 -8 23 21 13 36 -45 66 -23 12 -54 31 -71 43 -33 25 -233 145
-241 145 -2 0 -48 26 -102 58 -53 32 -153 91 -222 132 -69 40 -170 101 -226
136 -56 35 -123 74 -150 85 -27 12 -83 43 -124 69 -96 60 -202 116 -315 165
-49 22 -130 63 -180 91 -49 28 -112 59 -140 68 -27 10 -75 31 -105 48 -30 17
-125 67 -210 111 -85 43 -205 106 -267 138 -106 57 -209 98 -244 99 -38 0
-160 73 -200 118 -41 47 -41 47 -37 337 3 160 1 305 -4 323 -6 20 -5 54 1 88
9 45 8 63 -5 92 -8 20 -12 43 -9 51 8 20 7 481 -1 756 -4 116 -8 356 -10 535
-6 483 -18 1102 -28 1495 -14 517 -17 757 -23 1465 -3 415 -5 769 -6 785 0 17
0 215 1 440 1 456 -5 674 -19 691 -5 6 -36 25 -70 43 -33 17 -89 55 -122 83
-34 28 -86 62 -116 75 -32 14 -82 51 -120 87 -36 35 -99 82 -140 105 -41 23
-95 60 -121 81 -26 22 -52 40 -57 40 -6 0 -18 9 -29 21 -10 12 -40 32 -66 45
-25 13 -71 45 -102 72 -30 27 -95 71 -143 97 -48 27 -117 77 -153 110 -62 59
-148 115 -175 115 -8 0 -28 18 -45 40 -19 24 -54 51 -88 67 -31 15 -77 45
-102 68 -40 37 -189 135 -206 135 -3 0 -36 26 -72 58 -62 54 -229 162 -250
162 -5 0 -27 22 -50 49 -28 33 -65 61 -114 86 -40 20 -86 50 -103 65 -16 15
-57 43 -90 63 -33 20 -80 57 -105 82 -25 26 -66 57 -92 71 -26 13 -49 28 -53
33 -3 6 -29 22 -57 36 -28 14 -80 53 -115 86 -35 32 -92 73 -126 90 -34 18
-81 49 -105 70 -24 20 -66 50 -95 65 -29 14 -97 60 -152 100 -173 128 -182
134 -193 134 -6 0 -25 18 -43 41 -18 23 -78 71 -133 107 -56 36 -120 81 -142
101 -23 20 -77 53 -120 75 -44 21 -97 55 -119 76 -22 20 -69 54 -105 75 -36
21 -106 72 -157 114 -50 42 -115 90 -144 106 -28 17 -83 58 -121 93 -38 34
-73 62 -78 62 -5 0 -39 25 -75 55 -37 30 -74 55 -82 55 -24 0 -128 69 -227
151 -50 41 -125 93 -165 115 -41 21 -95 57 -120 80 -25 23 -73 56 -106 75 -88
49 -113 68 -190 142 -47 45 -83 71 -110 79 -25 7 -59 30 -92 62 -89 88 -139
126 -166 126 -18 0 -35 12 -58 41 -24 31 -55 52 -117 80 -62 29 -98 54 -142
98 -37 37 -82 70 -123 90 -47 22 -71 41 -86 66 -11 20 -29 38 -38 41 -60 18
-114 54 -201 133 -154 140 -217 157 -307 82z m245 -2909 c30 -19 76 -54 103
-77 26 -24 68 -56 95 -71 107 -62 185 -117 234 -168 50 -49 138 -116 154 -116
14 0 150 -89 169 -111 11 -12 44 -37 73 -55 29 -19 81 -58 115 -87 34 -29 94
-71 132 -95 39 -23 97 -62 130 -87 33 -24 89 -61 125 -82 36 -20 84 -56 106
-79 23 -23 79 -67 125 -98 46 -31 111 -76 144 -101 128 -96 182 -133 235 -160
30 -15 71 -42 90 -60 32 -31 202 -135 219 -135 4 0 23 -16 42 -36 18 -19 61
-52 94 -72 33 -20 103 -76 155 -124 62 -58 103 -88 118 -88 13 0 43 -19 71
-45 26 -24 79 -59 117 -76 41 -19 91 -53 124 -84 30 -29 82 -67 115 -84 33
-17 87 -58 120 -91 33 -33 64 -60 70 -60 16 0 177 -101 224 -140 23 -19 63
-54 90 -78 27 -24 66 -48 85 -53 20 -6 51 -23 69 -38 42 -37 198 -146 239
-167 17 -9 55 -37 82 -63 28 -26 76 -58 106 -71 30 -13 83 -50 116 -82 38 -35
90 -71 136 -92 69 -33 226 -172 229 -202 3 -39 10 -576 13 -1024 7 -820 16
-1388 26 -1550 5 -80 9 -284 10 -455 0 -268 3 -416 11 -710 1 -33 2 -190 1
-350 -1 -159 1 -342 5 -405 15 -282 14 -283 -119 -295 -54 -5 -83 -4 -91 4 -6
6 -23 11 -38 11 -15 0 -59 18 -98 40 -43 24 -83 40 -103 40 -19 0 -67 17 -112
40 -55 28 -90 40 -121 40 -32 0 -52 7 -73 25 -37 31 -74 45 -117 45 -18 0 -54
9 -80 20 -26 11 -65 20 -87 20 -28 0 -51 8 -74 25 -27 21 -44 25 -96 25 -63 0
-107 14 -303 99 -36 16 -59 20 -88 16 -31 -6 -45 -2 -78 19 -30 20 -56 28
-102 30 -38 2 -77 12 -102 25 -21 11 -50 21 -63 21 -13 0 -33 5 -44 11 -22 12
-146 43 -218 54 -25 4 -98 25 -162 46 -65 21 -127 39 -138 39 -29 0 -196 38
-249 57 -23 8 -76 19 -117 24 -41 4 -95 17 -120 29 -32 14 -68 20 -114 20 -55
0 -76 5 -121 30 -43 24 -66 30 -115 30 -47 0 -93 11 -204 50 -79 28 -154 50
-167 50 -13 0 -34 5 -46 12 -12 6 -58 15 -103 19 -47 4 -97 15 -120 27 -21 11
-64 23 -94 27 -30 4 -81 16 -114 26 -41 14 -71 18 -102 13 -33 -5 -60 -1 -102
14 -38 14 -91 22 -163 25 -87 4 -114 9 -155 30 -72 36 -76 44 -73 134 1 43 1
184 1 313 -1 129 2 254 7 276 4 23 5 48 1 55 -8 14 -16 546 -25 1524 -13 1373
-16 1657 -18 2021 -3 442 0 423 -84 472 -25 15 -69 48 -97 74 -29 26 -93 67
-143 93 -75 37 -98 55 -129 96 -30 42 -52 58 -131 97 -62 30 -102 57 -119 80
-26 33 -123 101 -205 143 -24 12 -65 40 -90 63 -75 66 -120 96 -147 96 -16 0
-40 18 -77 58 -40 42 -78 70 -150 107 -164 85 -190 154 -84 228 34 23 85 62
113 87 67 60 158 127 193 142 15 7 48 30 73 51 25 22 59 46 75 54 17 9 49 32
72 52 243 208 285 241 298 241 12 0 90 58 195 145 30 25 69 54 85 64 17 10 46
35 65 56 38 40 110 89 192 131 98 50 97 50 198 -14z m-7020 -92 c33 -17 81
-51 106 -76 25 -24 67 -55 92 -68 26 -14 65 -43 87 -66 22 -23 69 -57 105 -75
38 -20 89 -58 125 -94 46 -48 71 -64 112 -76 40 -12 67 -30 115 -76 35 -34 88
-77 118 -96 30 -19 66 -46 80 -58 45 -43 313 -221 400 -268 30 -16 96 -68 145
-116 50 -47 104 -93 120 -101 27 -13 93 -61 200 -144 52 -40 71 -52 121 -76
23 -11 64 -40 91 -64 27 -24 78 -61 114 -82 35 -20 91 -58 124 -84 33 -26 96
-70 140 -99 44 -29 100 -72 125 -96 25 -23 72 -58 105 -78 33 -20 76 -52 95
-72 19 -20 64 -53 100 -73 69 -38 164 -105 175 -122 7 -11 123 -88 165 -110
14 -7 45 -31 70 -54 25 -23 80 -59 123 -81 51 -25 89 -53 112 -81 20 -24 77
-68 133 -103 54 -33 109 -72 122 -87 33 -36 144 -106 200 -127 31 -11 70 -41
120 -92 41 -41 82 -75 91 -75 9 0 22 -7 29 -15 7 -8 19 -15 27 -15 7 0 35 -19
61 -43 62 -57 97 -80 154 -102 35 -13 66 -39 127 -105 92 -101 85 68 96 -2122
7 -1295 42 -1170 -305 -1118 -41 6 -120 12 -175 14 -55 2 -120 9 -145 16 -86
24 -244 47 -273 39 -28 -8 -100 1 -167 20 -38 11 -242 29 -354 31 -39 1 -73 3
-78 6 -4 3 -45 5 -90 5 -59 1 -88 5 -100 16 -14 12 -22 13 -51 2 -27 -9 -59
-9 -158 1 -68 8 -144 12 -169 10 -67 -5 -185 -5 -420 2 -89 2 -161 2 -220 -2
-19 -2 -83 1 -141 5 -69 5 -117 4 -137 -3 -20 -7 -55 -7 -104 -1 -206 25
-1337 32 -1378 8 -18 -10 -66 -14 -180 -15 -335 -4 -607 -11 -640 -19 -19 -4
-93 -9 -165 -12 -71 -2 -186 -6 -255 -9 -69 -2 -188 -6 -265 -9 -77 -2 -216
-10 -308 -18 -93 -9 -184 -13 -201 -10 -20 3 -45 -1 -62 -10 -23 -11 -55 -14
-151 -9 -102 4 -126 2 -147 -12 -18 -11 -48 -16 -103 -16 -49 -1 -85 -6 -95
-14 -12 -9 -40 -12 -90 -9 -66 4 -76 2 -106 -20 -29 -22 -40 -24 -96 -20 -50
4 -72 1 -111 -16 -38 -17 -69 -22 -144 -22 -113 -1 -234 -14 -311 -35 -48 -13
-114 -18 -350 -28 -30 -1 -65 -8 -78 -14 -12 -7 -52 -12 -90 -11 -40 0 -85 -6
-112 -16 -29 -10 -69 -15 -112 -13 -53 2 -71 -1 -86 -16 -14 -12 -43 -19 -99
-23 -43 -3 -90 -12 -105 -19 -15 -8 -59 -14 -100 -14 -44 -1 -83 -6 -98 -15
-61 -35 -176 7 -151 54 9 15 11 78 12 336 1 60 5 118 10 127 6 12 6 25 -1 38
-6 12 -13 91 -16 178 -2 86 -6 166 -9 177 -2 11 0 47 4 80 7 45 5 64 -4 75
-10 12 -11 37 -4 115 6 55 7 188 3 295 -3 107 -5 236 -3 285 6 168 0 527 -10
559 -6 17 -10 152 -11 301 0 149 -1 311 -2 360 -1 50 0 115 1 145 2 30 0 82
-4 115 -6 54 -4 63 17 92 36 48 158 158 198 178 19 10 58 38 86 64 71 64 129
110 190 151 183 123 234 159 275 195 26 23 78 62 115 88 38 26 105 79 150 119
44 40 106 91 138 113 32 22 79 59 106 83 26 23 56 42 67 42 10 0 35 16 54 36
18 20 48 43 64 51 17 9 57 41 90 72 70 65 151 121 175 121 10 0 44 29 78 65
33 36 67 65 75 65 22 0 127 77 182 133 28 29 82 73 120 99 39 26 88 65 110 87
21 23 46 41 55 41 9 0 29 14 46 31 16 17 54 47 84 66 30 19 71 50 90 68 19 18
77 56 127 85 55 30 104 65 119 86 28 36 87 80 154 114 20 10 63 49 95 85 32
36 63 65 69 65 7 0 27 15 45 34 18 19 45 37 60 41 14 4 49 28 76 53 28 26 64
55 80 64 82 49 168 107 208 143 25 22 71 58 102 80 32 22 84 64 116 93 35 31
68 52 82 52 16 0 72 45 181 146 115 106 162 144 175 139 11 -3 25 3 37 16 50
57 169 149 192 149 13 0 37 11 54 25 39 33 75 32 148 -5z m-6870 -100 c38 -22
72 -40 76 -40 4 0 33 -24 64 -54 33 -32 90 -71 138 -95 45 -23 107 -64 137
-91 30 -28 59 -50 64 -50 5 0 42 -30 83 -67 41 -38 117 -93 168 -123 51 -30
116 -76 144 -101 28 -25 69 -56 91 -69 22 -13 52 -34 66 -47 32 -29 94 -73
207 -144 166 -105 136 -203 -100 -325 -38 -20 -135 -101 -193 -161 -26 -28
-53 -45 -75 -49 -24 -4 -55 -26 -100 -69 -36 -34 -87 -75 -115 -91 -66 -37
-174 -110 -205 -139 -14 -12 -37 -25 -51 -28 -14 -4 -68 -49 -121 -101 -53
-52 -114 -104 -136 -115 -23 -11 -44 -26 -47 -32 -4 -6 -30 -26 -59 -44 -120
-78 -224 -201 -203 -240 29 -54 35 -189 50 -1265 8 -574 18 -1043 23 -1051 2
-4 4 -172 4 -375 1 -203 6 -389 11 -414 6 -30 6 -76 0 -134 -7 -58 -7 -161 0
-304 16 -355 25 -1057 15 -1132 -3 -25 -3 -80 2 -123 8 -77 8 -79 -17 -96 -38
-27 -134 -52 -171 -45 -26 6 -36 2 -64 -25 -28 -27 -40 -32 -74 -30 -26 2 -48
-3 -59 -13 -11 -10 -45 -17 -89 -20 -52 -4 -80 -11 -102 -27 -17 -11 -43 -21
-59 -21 -37 -1 -75 -11 -202 -54 -58 -20 -125 -36 -150 -36 -26 -1 -64 -8 -86
-16 -22 -8 -56 -20 -75 -25 -19 -6 -55 -20 -80 -31 -25 -11 -63 -23 -85 -25
-22 -3 -57 -11 -78 -19 -20 -8 -53 -14 -71 -14 -22 0 -45 -9 -64 -25 -17 -14
-35 -25 -41 -25 -7 0 -40 -9 -74 -21 -34 -11 -91 -27 -127 -35 -76 -15 -183
-49 -223 -70 -16 -8 -36 -14 -45 -14 -9 0 -48 -16 -86 -35 -46 -23 -82 -35
-110 -35 -23 0 -46 -4 -51 -8 -6 -5 -38 -19 -73 -32 -34 -12 -65 -27 -68 -31
-3 -5 -31 -9 -63 -9 -44 0 -65 -5 -85 -21 -34 -27 -175 -79 -241 -89 -65 -10
-186 -58 -425 -168 -43 -20 -118 -43 -150 -47 -8 0 -27 -9 -42 -19 -15 -10
-46 -22 -68 -27 -23 -5 -116 -44 -208 -85 -92 -42 -188 -82 -213 -90 -25 -8
-84 -31 -130 -52 -46 -22 -115 -49 -154 -62 -38 -13 -93 -33 -121 -46 -229
-101 -251 -79 -248 244 2 128 6 237 9 241 3 5 -2 45 -10 89 -11 59 -13 96 -6
139 5 31 7 62 5 68 -4 13 -16 434 -27 995 -3 168 -8 373 -10 455 -3 83 -2 182
2 221 4 38 3 86 -2 105 -5 19 -10 104 -12 189 -10 537 -16 895 -20 1100 -3
129 -7 375 -10 545 -3 171 -7 366 -10 435 -14 383 -6 421 92 467 32 16 69 44
93 73 22 26 54 53 72 60 69 26 100 47 160 107 34 35 67 63 73 63 5 1 42 28 80
60 39 33 92 72 119 87 27 16 65 42 85 59 20 17 47 37 61 44 14 7 45 30 70 51
107 91 179 147 233 184 33 21 61 44 64 51 4 12 78 68 204 154 112 77 206 150
244 189 22 23 60 51 85 63 78 37 261 177 330 253 24 26 105 84 209 149 25 15
82 61 126 101 44 39 92 76 107 81 16 5 47 24 70 42 102 78 189 142 280 205 53
37 134 103 180 146 46 44 103 89 127 102 39 20 179 124 339 250 30 24 84 63
120 87 37 24 83 59 102 76 19 18 55 45 80 60 91 54 176 123 302 243 48 45 113
99 145 119 32 20 79 57 105 81 26 23 56 43 66 43 11 0 37 12 58 26 98 67 148
70 244 14z"/>
    <path d="M15673 10187 c-16 -17 -18 -41 -16 -231 4 -358 12 -688 18 -746 3
-30 1 -111 -5 -180 -16 -177 -16 -175 15 -215 27 -37 27 -37 109 -31 44 4 349
9 676 11 844 8 779 5 803 37 25 33 35 166 18 231 -7 28 -12 225 -15 580 -3
414 -6 541 -16 552 -11 14 -59 15 -384 10 -397 -6 -411 -6 -878 -1 -294 2
-309 2 -325 -17z"/>
  </g>

  <!-- Texto -->
  <g fill="#FFFFFF" font-family="Georgia, 'Times New Roman', 'Liberation Serif', serif" font-weight="600" text-anchor="middle">
    <text x="1697.5" y="2100" font-size="260" letter-spacing="18">OPORTUNIDADES</text>
    <text x="1697.5" y="2440" font-size="260" letter-spacing="18">INMOBILIARIAS</text>
  </g>
</svg>
